<svg width="24" height="24" viewBox="0 0 24 24" fill="none" xmlns="http://www.w3.org/2000/svg">
<path d="M14.0469 19.3344C13.6999 20.302 12.7637 21 11.6623 21C10.5609 21 9.62469 20.3073 9.27774 19.3344H14.0469Z" fill="black"/>
<path d="M19.2961 16.852C18.7278 16.2319 18.5037 14.7832 18.4873 13.7413V10.0848C18.4873 10.0798 18.4873 10.0798 18.4873 10.0748C18.4873 6.16532 15.4598 2.99998 11.7218 2.99998C7.98388 2.99998 4.95635 6.17028 4.95635 10.0748C4.95635 10.0798 4.95635 10.0798 4.95635 10.0848V13.9844V14.0538C4.9017 15.056 4.66125 16.2914 4.13662 16.852C4.05465 16.9265 4 17.0356 4 17.1547C4 17.3829 4.19127 17.5714 4.42626 17.5714H19.001C19.236 17.5714 19.4273 17.3829 19.4273 17.1547C19.4382 17.0356 19.3781 16.9314 19.2961 16.852Z" stroke="black" stroke-width="1.6" stroke-miterlimit="10" stroke-linecap="round" stroke-linejoin="round"/>
<circle cx="22" cy="2" r="2" fill="#F56E22"/>
</svg>
