<svg width="24" height="24" viewBox="0 0 24 24" fill="none" xmlns="http://www.w3.org/2000/svg">
<path d="M9.89847 5.97556H20" stroke="black" stroke-width="1.6" stroke-miterlimit="10" stroke-linecap="square" stroke-linejoin="round"/>
<path d="M4 5.97556H6.02386" stroke="black" stroke-width="1.6" stroke-miterlimit="10" stroke-linecap="square" stroke-linejoin="round"/>
<path d="M7.95895 7.95117C9.03012 7.95117 9.89848 7.06667 9.89848 5.97558C9.89848 4.8845 9.03012 4 7.95895 4C6.88778 4 6.01942 4.8845 6.01942 5.97558C6.01942 7.06667 6.88778 7.95117 7.95895 7.95117Z" stroke="black" stroke-width="1.6" stroke-miterlimit="10" stroke-linecap="round" stroke-linejoin="round"/>
<path d="M18.5753 11.9268H20" stroke="black" stroke-width="1.6" stroke-miterlimit="10" stroke-linecap="square" stroke-linejoin="round"/>
<path d="M4 11.9268H14.7007" stroke="black" stroke-width="1.6" stroke-miterlimit="10" stroke-linecap="square" stroke-linejoin="round"/>
<path d="M16.6402 13.9023C17.7114 13.9023 18.5797 13.0178 18.5797 11.9268C18.5797 10.8357 17.7114 9.95117 16.6402 9.95117C15.569 9.95117 14.7007 10.8357 14.7007 11.9268C14.7007 13.0178 15.569 13.9023 16.6402 13.9023Z" stroke="black" stroke-width="1.6" stroke-miterlimit="10" stroke-linecap="round" stroke-linejoin="round"/>
<path d="M9.89847 17.8779H20" stroke="black" stroke-width="1.6" stroke-miterlimit="10" stroke-linecap="square" stroke-linejoin="round"/>
<path d="M4 17.8779H6.02386" stroke="black" stroke-width="1.6" stroke-miterlimit="10" stroke-linecap="square" stroke-linejoin="round"/>
<path d="M7.95895 19.8535C9.03012 19.8535 9.89848 18.969 9.89848 17.8779C9.89848 16.7868 9.03012 15.9023 7.95895 15.9023C6.88778 15.9023 6.01942 16.7868 6.01942 17.8779C6.01942 18.969 6.88778 19.8535 7.95895 19.8535Z" stroke="black" stroke-width="1.6" stroke-miterlimit="10" stroke-linecap="round" stroke-linejoin="round"/>
</svg>
