<svg width="24" height="24" viewBox="0 0 24 24" fill="none" xmlns="http://www.w3.org/2000/svg">
<circle cx="12" cy="12" r="9.2" stroke="black" stroke-width="1.6"/>
<path d="M10.4519 14.4211H12.7857C12.7857 13.4386 12.83 13.3965 13.5242 12.9193C14.5138 12.2316 15.6364 11.0246 15.6364 9.59298C15.6364 7.68421 13.8196 6 11.6631 6C10.2008 6 8.41357 7.06667 8 9.07368L10.3042 9.49474C10.4962 8.54035 11.0427 8.21754 11.6631 8.21754C12.7118 8.21754 13.3026 8.76491 13.3026 9.59298C13.3026 10.1825 12.7561 10.7018 12.1357 11.1228C11.4415 11.614 10.4519 12.2596 10.4519 14.4211ZM10.4667 16.8912C10.4667 17.5088 10.8803 18 11.6336 18C12.3868 18 12.8004 17.5088 12.8004 16.8912C12.8004 16.2737 12.3868 15.7825 11.6336 15.7825C10.8803 15.7825 10.4667 16.2737 10.4667 16.8912Z" fill="black"/>
</svg>
