<svg width="24" height="24" viewBox="0 0 24 24" fill="none" xmlns="http://www.w3.org/2000/svg">
<path d="M20.5525 9.98054H18.769C18.6219 9.52089 18.4258 9.08576 18.1929 8.67514L19.4738 7.39425C19.6516 7.21652 19.6516 6.92847 19.4738 6.75074L17.2553 4.52604C17.0775 4.3483 16.7895 4.3483 16.6117 4.52604L15.2818 5.85595C14.8835 5.64758 14.4606 5.47598 14.0255 5.34728V3.45352C14.0255 3.20225 13.8232 3 13.5719 3H10.4341C10.1828 3 9.98054 3.20225 9.98054 3.45352V5.34728C9.53928 5.47598 9.12253 5.64758 8.72417 5.85595L7.38812 4.52604C7.21039 4.3483 6.92234 4.3483 6.74461 4.52604L4.52604 6.74461C4.3483 6.92234 4.3483 7.21039 4.52604 7.38812L5.80693 8.66901C5.57404 9.07963 5.37792 9.52089 5.23083 9.97441H3.45352C3.20225 9.97441 3 10.1767 3 10.4279V13.5658C3 13.8171 3.20225 14.0193 3.45352 14.0193H5.14503C5.27986 14.5157 5.46372 14.9938 5.69661 15.4412L4.52604 16.6118C4.3483 16.7895 4.3483 17.0775 4.52604 17.2553L6.74461 19.4738C6.92234 19.6516 7.21039 19.6516 7.38812 19.4738L8.50966 18.3523C8.96931 18.6158 9.46573 18.8242 9.98054 18.9774V20.5463C9.98054 20.7976 10.1828 20.9999 10.4341 20.9999H13.5719C13.8232 20.9999 14.0255 20.7976 14.0255 20.5463V18.9774C14.5464 18.8242 15.0367 18.6158 15.4963 18.3523L16.6179 19.4738C16.7956 19.6516 17.0837 19.6516 17.2614 19.4738L19.4738 17.2553C19.6516 17.0775 19.6516 16.7895 19.4738 16.6118L18.3033 15.4412C18.5361 14.9938 18.72 14.5157 18.8548 14.0193H20.5463C20.7976 14.0193 20.9999 13.8171 20.9999 13.5658V10.4279C21.006 10.1828 20.7976 9.98054 20.5525 9.98054Z" stroke="black" stroke-width="1.6" stroke-miterlimit="10" stroke-linecap="round" stroke-linejoin="round"/>
<path d="M12 15C13.6569 15 15 13.6569 15 12C15 10.3431 13.6569 9 12 9C10.3431 9 9 10.3431 9 12C9 13.6569 10.3431 15 12 15Z" stroke="black" stroke-width="1.6" stroke-miterlimit="10" stroke-linecap="round" stroke-linejoin="round"/>
</svg>
