<svg width="24" height="24" viewBox="0 0 24 24" fill="none" xmlns="http://www.w3.org/2000/svg">
<path d="M16.2326 4C14.3866 4 12.7879 5.0954 12 6.6936C11.2064 5.0954 9.60767 4 7.76166 4C3 4 3 8.58511 3 8.58511C3 8.65694 3 8.90236 3 8.95623C3 9.3453 3.05751 9.71642 3.12652 10.0816C4.39744 16.7138 12 20 12 20C12 20 19.5968 16.7138 20.8735 10.0816C20.9425 9.71642 21 9.3453 21 8.95623C21 8.90236 21 8.65694 21 8.58511C20.9942 8.58511 20.9942 4 16.2326 4Z" fill="#ED2F23" stroke="#ED2F23" stroke-width="2" stroke-miterlimit="10" stroke-linecap="round" stroke-linejoin="round"/>
</svg>
